<mxfile host="app.diagrams.net" modified="2024-06-12T06:57:59.244Z" agent="Mozilla/5.0 (Windows NT 10.0; Win64; x64) AppleWebKit/537.36 (KHTML, like Gecko) Chrome/125.0.0.0 Safari/537.36 Edg/125.0.0.0" version="24.5.3" etag="SDf1U_ShLoJdSaslZunl" type="github">
  <diagram name="第 1 页" id="GDCLb8c8jAzNP9Vm_JCT">
    <mxGraphModel>
      <root>
        <mxCell id="0" />
        <mxCell id="1" parent="0" />
      </root>
    </mxGraphModel>
  </diagram>
</mxfile>
